<?xml version="1.0" standalone="no"?><!DOCTYPE svg PUBLIC "-//W3C//DTD SVG 1.1//EN" "http://www.w3.org/Graphics/SVG/1.1/DTD/svg11.dtd"><svg t="1756345240879" class="icon" viewBox="0 0 1024 1024" version="1.1" xmlns="http://www.w3.org/2000/svg" p-id="24492" xmlns:xlink="http://www.w3.org/1999/xlink" width="200" height="200"><path d="M432.179599 91.642422c36.843336 0 91.872821-5.335013 165.083335-15.99992 73.215634-10.670027 128.245119-15.99992 165.093574-15.99992 21.329813 0 42.664747 2.908145 63.99968 8.724436 1.94047-7.756761 6.543327-14.05945 13.818811-18.908065 7.270364-4.848616 14.786486-9.697232 22.543247-14.540728V32.00496c0.972795-21.334933-13.091775-31.99984-42.183469-31.99984-0.967675 0-13.573052 3.394543-37.816131 10.183629l-11.637701-2.913265c-85.329493 20.367258-157.572332 30.545767-216.728517 30.545767-18.421668 0-45.813531-3.148784-82.175589-9.451473l-7.659482-1.305593C431.94408 21.631892 407.101964 18.913185 389.99101 18.913185c-10.664907 0-22.302608 3.394543-34.907985 10.18363l-4.362219-1.454073h-1.454072C308.532217 35.399503 286.721126 41.215794 283.812981 45.096735c10.664907 13.573052 33.94031 25.210754 69.815971 34.907985 30.05937 7.756761 56.242919 11.637702 78.545527 11.637702zM501.98533 1024c55.275244-12.605377 92.610097-53.334773 111.99944-122.183069 7.761881-26.178429 15.513522-85.815891 23.275404-178.907266 4.848616-28.118899 9.215954-49.453833 13.091774-63.99968l-1.454072-5.81629c27.151224-123.150744 40.724276-260.360938 40.724276-411.635702 0-63.99968-8.243159-108.604897-24.729476-133.815651h-1.448953c-0.972795 0-3.394543-1.213434-7.270364-3.635182-3.880941-2.426868-6.307808-3.635182-7.275483-3.635182-0.972795 0-1.454073 0.481278-1.454073 1.448953h-5.821411l-2.908146 2.913265-4.362218 10.178509-7.270363-13.091774-29.096815 13.091774-7.270364-5.81629-1.454072 5.81629-4.362218-7.270363-2.913266 7.270363-4.362218-5.81629-7.270364 5.81629-8.729556-11.637701v5.821411l-4.362218 2.908145-10.183629-8.729556c-1.94047 1.94559-3.875821 3.394543-5.816291 4.367338l-5.816291 1.454073c-11.637702 12.605377-19.394463 31.99984-23.275404 58.178269-4.848616 59.151064-7.270364 103.761401-7.270363 133.820771-5.821411 92.118579-9.697232 160.971995-11.637702 206.539767-6.789086 63.99968-12.124099 111.518162-15.99992 142.550327-1.94047 48.486158-3.394543 96.480798-4.362218 143.99928-2.913265 56.237799-12.605377 102.783486-29.091695 139.631942-8.729556-2.908145-33.94031-18.175909-75.637382-45.813531-41.697072-27.637622-65.453753-44.364578-71.270043-50.185989-13.578172-12.605377-24.729476-21.816211-33.453913-27.632502-9.697232-15.513522-33.459033-38.788926-71.270044-69.821091l-4.367338 7.270364-11.637702-7.270364c1.94047 7.756761 2.908145 14.05945 2.908146 18.908066l-4.362219 1.459192L158.721766 753.460553l4.362219 10.178509v2.908145l-0.465918 0.153599 0.378878 0.511998c9.866191 13.516732 29.90065 34.175829 60.108499 61.98753l5.432293 4.981735c38.788926 35.394383 66.426548 58.183389 82.912866 68.361898 16.486318 10.183629 27.632502 17.699752 33.453912 22.548368a2353.037835 2353.037835 0 0 0 52.361979 47.99976c23.270284 18.421668 45.091615 27.637622 65.453752 27.637621 2.908145 0.967675 5.335013 1.93535 7.270364 2.908146l4.367338 1.454073a197.631012 197.631012 0 0 0 13.091775 7.270363c3.875821 5.821411 7.270364 9.215954 10.178509 10.183629l4.362218 1.454073z" fill="#13227a" p-id="24493"></path></svg>